Coordinates
version=1
nRows=29
nColumns=24
inDegrees=yes

Units are S.I. units (second, meters, Newtons, ...)
If the header above contains a line with 'inDegrees', this indicates whether rotational values are in degrees (yes) or radians (no).

endheader
time	pelvis_tilt	pelvis_list	pelvis_rotation	pelvis_tx	pelvis_ty	pelvis_tz	lumbar_extension	lumbar_bending	lumbar_rotation	arm_flex_r	arm_add_r	arm_rot_r	elbow_flex_r	pro_sup_r	wrist_flex_r	wrist_dev_r	arm_flex_l	arm_add_l	arm_rot_l	elbow_flex_l	pro_sup_l	wrist_flex_l	wrist_dev_l
     64.83600000	     -7.28139220	      0.59866774	      3.12808724	      0.51874715	      0.86417034	      0.09755152	     -3.90651573	      0.36222693	      5.78355181	      8.70655068	     -5.66570648	     -5.38106977	     21.57573984	     26.31199344	    -36.74671628	    -24.99999983	     -1.36564238	    -14.46812397	     16.13372142	     43.20361479	     90.00000018	     -1.18636834	    -24.99999983
     64.84000000	     -7.28194393	      0.59964237	      3.12860876	      0.51872476	      0.86417446	      0.09754896	     -3.90711722	      0.36320887	      5.78415977	      8.70642004	     -5.66588986	     -5.38142663	     21.57526428	     26.31201812	    -36.74665376	    -24.99999983	     -1.36578072	    -14.46848963	     16.13353008	     43.20351997	     90.00000018	     -1.18642164	    -24.99999983
     64.84400000	     -7.28259625	      0.60067584	      3.12908725	      0.51871013	      0.86417330	      0.09755506	     -3.90780271	      0.36421884	      5.78467314	      8.70629808	     -5.66615794	     -5.38180397	     21.57477422	     26.31204069	    -36.74659101	    -24.99999983	     -1.36585108	    -14.46874365	     16.13336806	     43.20346328	     90.00000018	     -1.18647016	    -24.99999983
     64.84800000	     -7.28324597	      0.60173374	      3.12952850	      0.51869288	      0.86417248	      0.09756260	     -3.90849646	      0.36524997	      5.78514308	      8.70611527	     -5.66642648	     -5.38219197	     21.57425410	     26.31205858	    -36.74652921	    -24.99999983	     -1.36592707	    -14.46897892	     16.13321662	     43.20341193	     90.00000018	     -1.18651666	    -24.99999983
     64.85200000	     -7.28390261	      0.60278724	      3.12991719	      0.51867635	      0.86416956	      0.09757260	     -3.90920419	      0.36626990	      5.78554489	      8.70589698	     -5.66671685	     -5.38258834	     21.57371538	     26.31207406	    -36.74646943	    -24.99999983	     -1.36596574	    -14.46917347	     16.13307946	     43.20337665	     90.00000018	     -1.18655945	    -24.99999983
     64.85600000	     -7.28455669	      0.60381696	      3.13027692	      0.51866186	      0.86416448	      0.09758492	     -3.90991097	      0.36725741	      5.78590117	      8.70567725	     -5.66701422	     -5.38298743	     21.57316506	     26.31208800	    -36.74641168	    -24.99999983	     -1.36596394	    -14.46929865	     16.13296354	     43.20336137	     90.00000018	     -1.18659797	    -24.99999983
     64.86000000	     -7.28518438	      0.60482761	      3.13061659	      0.51864693	      0.86415786	      0.09759765	     -3.91060259	      0.36822410	      5.78623366	      8.70544881	     -5.66729871	     -5.38338705	     21.57260720	     26.31209840	    -36.74635592	    -24.99999983	     -1.36594353	    -14.46938636	     16.13286028	     43.20335702	     90.00000018	     -1.18663366	    -24.99999983
     64.86400000	     -7.28585413	      0.60587779	      3.13089648	      0.51863920	      0.86414621	      0.09762008	     -3.91132254	      0.36919319	      5.78644750	      8.70522834	     -5.66757893	     -5.38378935	     21.57204802	     26.31210632	    -36.74630154	    -24.99999983	     -1.36581701	    -14.46927915	     16.13278775	     43.20336938	     90.00000018	     -1.18666800	    -24.99999983
     64.86800000	     -7.28648963	      0.60688721	      3.13111691	      0.51863186	      0.86413017	      0.09764301	     -3.91203045	      0.37012128	      5.78659556	      8.70498553	     -5.66773098	     -5.38418550	     21.57148252	     26.31211078	    -36.74624879	    -24.99999983	     -1.36563742	    -14.46902795	     16.13273346	     43.20336114	     90.00000018	     -1.18670340	    -24.99999983
     64.87200000	     -7.28700435	      0.60780018	      3.13132819	      0.51861245	      0.86412297	      0.09765122	     -3.91263939	      0.37101340	      5.78682218	      8.70468312	     -5.66778801	     -5.38457587	     21.57090463	     26.31211242	    -36.74619862	    -24.99999983	     -1.36554179	    -14.46894953	     16.13265450	     43.20333410	     90.00000018	     -1.18673923	    -24.99999983
     64.87600000	     -7.28754042	      0.60876233	      3.13146645	      0.51860066	      0.86410544	      0.09766955	     -3.91328032	      0.37191506	      5.78691431	      8.70439028	     -5.66784793	     -5.38496637	     21.57033010	     26.31211510	    -36.74614810	    -24.99999983	     -1.36531633	    -14.46861884	     16.13262014	     43.20335004	     90.00000018	     -1.18677103	    -24.99999983
     64.88000000	     -7.28789925	      0.60957572	      3.13164398	      0.51857383	      0.86409470	      0.09765510	     -3.91379209	      0.37279963	      5.78723996	      8.70409761	     -5.66777615	     -5.38533205	     21.56975698	     26.31211572	    -36.74609955	    -24.99999983	     -1.36519739	    -14.46868694	     16.13251422	     43.20336179	     90.00000018	     -1.18680657	    -24.99999983
     64.88400000	     -7.28841206	      0.61085114	      3.13192864	      0.51856354	      0.86407904	      0.09767016	     -3.91437597	      0.37401591	      5.78751931	      8.70394295	     -5.66802602	     -5.38571377	     21.56918395	     26.31211734	    -36.74605319	    -24.99999983	     -1.36498651	    -14.46858497	     16.13244577	     43.20346403	     90.00000018	     -1.18683741	    -24.99999983
     64.88800000	     -7.28885590	      0.61209013	      3.13213974	      0.51855227	      0.86406807	      0.09768802	     -3.91487392	      0.37518572	      5.78770689	      8.70373671	     -5.66824937	     -5.38609003	     21.56859413	     26.31211530	    -36.74601103	    -24.99999983	     -1.36469740	    -14.46837384	     16.13238414	     43.20357717	     90.00000018	     -1.18686963	    -24.99999983
     64.89200000	     -7.28918379	      0.61318350	      3.13222579	      0.51853662	      0.86406097	      0.09770500	     -3.91526609	      0.37621768	      5.78776724	      8.70343764	     -5.66834867	     -5.38646387	     21.56799578	     26.31211040	    -36.74597067	    -24.99999983	     -1.36433282	    -14.46800929	     16.13233277	     43.20368695	     90.00000018	     -1.18690329	    -24.99999983
     64.89600000	     -7.28936336	      0.61411855	      3.13223683	      0.51850942	      0.86406206	      0.09770828	     -3.91553515	      0.37715043	      5.78782984	      8.70303986	     -5.66833767	     -5.38684037	     21.56738606	     26.31210217	    -36.74593115	    -24.99999983	     -1.36398940	    -14.46777392	     16.13225563	     43.20380395	     90.00000018	     -1.18693818	    -24.99999983
     64.90000000	     -7.28968809	      0.61523791	      3.13222630	      0.51849867	      0.86404897	      0.09772983	     -3.91592713	      0.37819361	      5.78776565	      8.70270721	     -5.66841900	     -5.38722269	     21.56678114	     26.31209272	    -36.74589005	    -24.99999983	     -1.36347773	    -14.46728532	     16.13221524	     43.20397402	     90.00000018	     -1.18697052	    -24.99999983
     64.90400000	     -7.28989168	      0.61612949	      3.13216226	      0.51847645	      0.86405097	      0.09772581	     -3.91618899	      0.37911949	      5.78779331	      8.70231062	     -5.66831374	     -5.38760073	     21.56616793	     26.31208026	    -36.74585101	    -24.99999983	     -1.36300233	    -14.46705126	     16.13211477	     43.20413733	     90.00000018	     -1.18700972	    -24.99999983
     64.90800000	     -7.29021368	      0.61726696	      3.13209270	      0.51846872	      0.86403713	      0.09774367	     -3.91656352	      0.38019950	      5.78769285	      8.70197136	     -5.66832072	     -5.38799348	     21.56554770	     26.31206682	    -36.74581199	    -24.99999983	     -1.36238713	    -14.46653688	     16.13205766	     43.20435024	     90.00000018	     -1.18704770	    -24.99999983
     64.91200000	     -7.29037680	      0.61817435	      3.13194003	      0.51844650	      0.86403894	      0.09774126	     -3.91678450	      0.38113805	      5.78762348	      8.70151832	     -5.66818673	     -5.38838514	     21.56490115	     26.31204854	    -36.74577656	    -24.99999983	     -1.36182034	    -14.46620579	     16.13197033	     43.20457426	     90.00000018	     -1.18708521	    -24.99999983
     64.91600000	     -7.29073444	      0.61940921	      3.13178481	      0.51844662	      0.86401751	      0.09777198	     -3.91718776	      0.38226577	      5.78736285	      8.70114670	     -5.66821288	     -5.38878472	     21.56424247	     26.31202722	    -36.74574183	    -24.99999983	     -1.36104593	    -14.46542549	     16.13195266	     43.20485290	     90.00000018	     -1.18712014	    -24.99999983
     64.92000000	     -7.29089767	      0.62041293	      3.13161695	      0.51842797	      0.86401607	      0.09777398	     -3.91740185	      0.38328151	      5.78725674	      8.70066970	     -5.66804858	     -5.38916732	     21.56355463	     26.31199962	    -36.74571295	    -24.99999983	     -1.36037734	    -14.46497445	     16.13186220	     43.20509494	     90.00000018	     -1.18716373	    -24.99999983
     64.92400000	     -7.29104150	      0.62140668	      3.13142003	      0.51840774	      0.86402354	      0.09777039	     -3.91755838	      0.38431304	      5.78715664	      8.70017388	     -5.66794473	     -5.38955615	     21.56285160	     26.31197138	    -36.74568576	    -24.99999983	     -1.35968503	    -14.46467525	     16.13174480	     43.20538465	     90.00000018	     -1.18720635	    -24.99999983
     64.92800000	     -7.29126474	      0.62242372	      3.13105697	      0.51839936	      0.86402443	      0.09778879	     -3.91776564	      0.38528652	      5.78675437	      8.69961803	     -5.66788988	     -5.38996156	     21.56213206	     26.31194261	    -36.74566101	    -24.99999983	     -1.35879107	    -14.46395619	     16.13169379	     43.20572719	     90.00000018	     -1.18724612	    -24.99999983
     64.93200000	     -7.29138412	      0.62320695	      3.13057533	      0.51838479	      0.86403326	      0.09779258	     -3.91787034	      0.38609372	      5.78630970	      8.69898096	     -5.66765495	     -5.39036028	     21.56140053	     26.31191253	    -36.74563880	    -24.99999983	     -1.35785045	    -14.46326687	     16.13162769	     43.20607327	     90.00000018	     -1.18728790	    -24.99999983
     64.93600000	     -7.29147744	      0.62407290	      3.13013569	      0.51836727	      0.86403916	      0.09779422	     -3.91797535	      0.38698864	      5.78592611	      8.69834452	     -5.66746445	     -5.39076247	     21.56064739	     26.31187949	    -36.74561760	    -24.99999983	     -1.35694841	    -14.46267345	     16.13155760	     43.20644674	     90.00000018	     -1.18732710	    -24.99999983
     64.94000000	     -7.29147211	      0.62477200	      3.12964253	      0.51833724	      0.86405943	      0.09777314	     -3.91797927	      0.38781621	      5.78562140	      8.69763527	     -5.66720013	     -5.39118226	     21.55987675	     26.31184292	    -36.74559734	    -24.99999983	     -1.35612655	    -14.46239268	     16.13144675	     43.20685487	     90.00000018	     -1.18736548	    -24.99999983
     64.94400000	     -7.29171218	      0.62586544	      3.12913209	      0.51833044	      0.86405591	      0.09778700	     -3.91821089	      0.38889537	      5.78510381	      8.69700720	     -5.66717189	     -5.39162494	     21.55910002	     26.31180615	    -36.74557568	    -24.99999983	     -1.35512184	    -14.46172478	     16.13142280	     43.20735511	     90.00000018	     -1.18739438	    -24.99999983
     64.94800000	     -7.29201838	      0.62702686	      3.12860678	      0.51833305	      0.86404354	      0.09780707	     -3.91850090	      0.39001763	      5.78453422	      8.69641787	     -5.66714666	     -5.39205087	     21.55830495	     26.31176683	    -36.74555757	    -24.99999983	     -1.35400648	    -14.46091646	     16.13141831	     43.20786865	     90.00000018	     -1.18742397	    -24.99999983
